<?xml version="1.0" encoding="utf-8"?>
<!-- Generator: Adobe Illustrator 21.1.0, SVG Export Plug-In . SVG Version: 6.00 Build 0)  -->
<svg version="1.1" id="Livello_1" xmlns="http://www.w3.org/2000/svg" xmlns:xlink="http://www.w3.org/1999/xlink" x="0px" y="0px"
	 viewBox="0 0 595.3 595.3" style="enable-background:new 0 0 595.3 595.3;" xml:space="preserve">
<style type="text/css">
	.st0{fill:#1E1E1C;}
	.st1{fill:url(#SVGID_1_);}
	.st2{fill:url(#SVGID_2_);}
	.st3{fill:url(#SVGID_3_);}
	.st4{fill:url(#SVGID_4_);}
	.st5{fill:url(#SVGID_5_);}
	.st6{fill:url(#SVGID_6_);}
	.st7{fill:#F59F2C;}
</style>
<g>
	<path class="st0" d="M171.2,392.8v12.8h16.4v2.3h-16.4v15.6h-2.4v-33h20.7v2.3H171.2z"/>
	<path class="st0" d="M215.2,423.5v-33h21.2v2.3h-18.7v12.1h16.4v2.3h-16.4v13.9h18.7v2.3H215.2z"/>
	<path class="st0" d="M285.5,423.5l-19.2-29.3v29.3h-2.4v-33h2.7l19.2,29.2v-29.2h2.4v33H285.5z"/>
	<path class="st0" d="M339.9,423.5l-19.2-29.3v29.3h-2.4v-33h2.7l19.2,29.2v-29.2h2.4v33H339.9z"/>
	<path class="st0" d="M372.8,423.5v-33h21.2v2.3h-18.7v12.1h16.4v2.3h-16.4v13.9h18.7v2.3H372.8z"/>
	<path class="st0" d="M438.6,423.5l-9.6-14.8l-9.6,14.8h-2.6l10.9-16.7l-10.8-16.3h2.7l9.6,14.4l9.6-14.4h2.6l-10.9,16.3l10.9,16.7
		H438.6z"/>
</g>
<g>
	<linearGradient id="SVGID_1_" gradientUnits="userSpaceOnUse" x1="230.9948" y1="184.8055" x2="282.8409" y2="184.8055">
		<stop  offset="0" style="stop-color:#EF7B00"/>
		<stop  offset="9.945565e-02" style="stop-color:#F07F00"/>
		<stop  offset="0.6502" style="stop-color:#F29100"/>
		<stop  offset="1" style="stop-color:#F39800"/>
	</linearGradient>
	<polygon class="st1" points="251.4,92.7 231,276.9 282.8,238.7 	"/>
	<linearGradient id="SVGID_2_" gradientUnits="userSpaceOnUse" x1="230.9948" y1="290.2062" x2="305.058" y2="290.2062">
		<stop  offset="0" style="stop-color:#EB5F0A"/>
		<stop  offset="0.4054" style="stop-color:#EF7C00"/>
		<stop  offset="0.7693" style="stop-color:#F18F00"/>
		<stop  offset="1" style="stop-color:#F39600"/>
	</linearGradient>
	<polygon class="st2" points="231,276.9 305.1,341.7 282.8,238.7 	"/>
	<linearGradient id="SVGID_3_" gradientUnits="userSpaceOnUse" x1="251.3622" y1="165.6873" x2="305.058" y2="165.6873">
		<stop  offset="0" style="stop-color:#EE7203"/>
		<stop  offset="0.2546" style="stop-color:#F28B15"/>
		<stop  offset="0.5403" style="stop-color:#F6A122"/>
		<stop  offset="0.7976" style="stop-color:#F8AD2A"/>
		<stop  offset="1" style="stop-color:#F9B22D"/>
	</linearGradient>
	<polygon class="st3" points="305.1,222.3 251.4,92.7 282.8,238.7 	"/>
	
		<linearGradient id="SVGID_4_" gradientUnits="userSpaceOnUse" x1="573.327" y1="184.8055" x2="625.173" y2="184.8055" gradientTransform="matrix(-1 0 0 1 952.4483 0)">
		<stop  offset="0" style="stop-color:#EF7B00"/>
		<stop  offset="9.945565e-02" style="stop-color:#F07F00"/>
		<stop  offset="0.6502" style="stop-color:#F29100"/>
		<stop  offset="1" style="stop-color:#F39800"/>
	</linearGradient>
	<polygon class="st4" points="358.8,92.7 379.1,276.9 327.3,238.7 	"/>
	
		<linearGradient id="SVGID_5_" gradientUnits="userSpaceOnUse" x1="573.327" y1="290.2062" x2="647.3903" y2="290.2062" gradientTransform="matrix(-1 0 0 1 952.4483 0)">
		<stop  offset="0" style="stop-color:#EB5F0A"/>
		<stop  offset="0.4054" style="stop-color:#EF7C00"/>
		<stop  offset="0.7693" style="stop-color:#F18F00"/>
		<stop  offset="1" style="stop-color:#F39600"/>
	</linearGradient>
	<polygon class="st5" points="379.1,276.9 305.1,341.7 327.3,238.7 	"/>
	
		<linearGradient id="SVGID_6_" gradientUnits="userSpaceOnUse" x1="593.6944" y1="165.6873" x2="647.3903" y2="165.6873" gradientTransform="matrix(-1 0 0 1 952.4483 0)">
		<stop  offset="0" style="stop-color:#EE7203"/>
		<stop  offset="0.2546" style="stop-color:#F28B15"/>
		<stop  offset="0.5403" style="stop-color:#F6A122"/>
		<stop  offset="0.7976" style="stop-color:#F8AD2A"/>
		<stop  offset="1" style="stop-color:#F9B22D"/>
	</linearGradient>
	<polygon class="st6" points="305.1,222.3 358.8,92.7 327.3,238.7 	"/>
	<polygon class="st7" points="305.1,222.3 327.3,238.7 305.1,341.7 282.8,238.7 	"/>
</g>
</svg>
