<?xml version="1.0" encoding="utf-8"?>
<!-- Generator: Adobe Illustrator 21.1.0, SVG Export Plug-In . SVG Version: 6.00 Build 0)  -->
<svg version="1.1" id="Livello_1" xmlns="http://www.w3.org/2000/svg" xmlns:xlink="http://www.w3.org/1999/xlink" x="0px" y="0px"
	 viewBox="0 0 595.3 595.3" style="enable-background:new 0 0 595.3 595.3;" xml:space="preserve">
<style type="text/css">
	.st0{fill:#1E1E1C;}
	.st1{fill:url(#SVGID_1_);}
	.st2{fill:url(#SVGID_2_);}
	.st3{fill:url(#SVGID_3_);}
	.st4{fill:url(#SVGID_4_);}
	.st5{fill:url(#SVGID_5_);}
	.st6{fill:url(#SVGID_6_);}
	.st7{fill:#F59F2C;}
</style>
<g>
	<path class="st0" d="M260.9,281.2V294h16.4v2.3h-16.4v15.6h-2.4v-33h20.7v2.3H260.9z"/>
	<path class="st0" d="M305,311.9v-33h21.2v2.3h-18.7v12.1h16.4v2.3h-16.4v13.9h18.7v2.3H305z"/>
	<path class="st0" d="M375.3,311.9l-19.2-29.3v29.3h-2.4v-33h2.7l19.2,29.2v-29.2h2.4v33H375.3z"/>
	<path class="st0" d="M429.7,311.9l-19.2-29.3v29.3h-2.4v-33h2.7l19.2,29.2v-29.2h2.4v33H429.7z"/>
	<path class="st0" d="M462.5,311.9v-33h21.2v2.3H465v12.1h16.4v2.3H465v13.9h18.7v2.3H462.5z"/>
	<path class="st0" d="M528.4,311.9l-9.6-14.8l-9.6,14.8h-2.6l10.9-16.7l-10.8-16.3h2.7l9.6,14.4l9.6-14.4h2.6l-10.9,16.3l10.9,16.7
		H528.4z"/>
</g>
<g>
	<linearGradient id="SVGID_1_" gradientUnits="userSpaceOnUse" x1="58.354" y1="224.3813" x2="110.2001" y2="224.3813">
		<stop  offset="0" style="stop-color:#EF7B00"/>
		<stop  offset="9.945565e-02" style="stop-color:#F07F00"/>
		<stop  offset="0.6502" style="stop-color:#F29100"/>
		<stop  offset="1" style="stop-color:#F39800"/>
	</linearGradient>
	<polygon class="st1" points="78.7,132.3 58.4,316.5 110.2,278.3 	"/>
	<linearGradient id="SVGID_2_" gradientUnits="userSpaceOnUse" x1="58.354" y1="329.782" x2="132.4173" y2="329.782">
		<stop  offset="0" style="stop-color:#EB5F0A"/>
		<stop  offset="0.4054" style="stop-color:#EF7C00"/>
		<stop  offset="0.7693" style="stop-color:#F18F00"/>
		<stop  offset="1" style="stop-color:#F39600"/>
	</linearGradient>
	<polygon class="st2" points="58.4,316.5 132.4,381.3 110.2,278.3 	"/>
	<linearGradient id="SVGID_3_" gradientUnits="userSpaceOnUse" x1="78.7214" y1="205.2631" x2="132.4173" y2="205.2631">
		<stop  offset="0" style="stop-color:#EE7203"/>
		<stop  offset="0.2546" style="stop-color:#F28B15"/>
		<stop  offset="0.5403" style="stop-color:#F6A122"/>
		<stop  offset="0.7976" style="stop-color:#F8AD2A"/>
		<stop  offset="1" style="stop-color:#F9B22D"/>
	</linearGradient>
	<polygon class="st3" points="132.4,261.9 78.7,132.3 110.2,278.3 	"/>
	
		<linearGradient id="SVGID_4_" gradientUnits="userSpaceOnUse" x1="745.9678" y1="224.3813" x2="797.8138" y2="224.3813" gradientTransform="matrix(-1 0 0 1 952.4483 0)">
		<stop  offset="0" style="stop-color:#EF7B00"/>
		<stop  offset="9.945565e-02" style="stop-color:#F07F00"/>
		<stop  offset="0.6502" style="stop-color:#F29100"/>
		<stop  offset="1" style="stop-color:#F39800"/>
	</linearGradient>
	<polygon class="st4" points="186.1,132.3 206.5,316.5 154.6,278.3 	"/>
	
		<linearGradient id="SVGID_5_" gradientUnits="userSpaceOnUse" x1="745.9678" y1="329.782" x2="820.0311" y2="329.782" gradientTransform="matrix(-1 0 0 1 952.4483 0)">
		<stop  offset="0" style="stop-color:#EB5F0A"/>
		<stop  offset="0.4054" style="stop-color:#EF7C00"/>
		<stop  offset="0.7693" style="stop-color:#F18F00"/>
		<stop  offset="1" style="stop-color:#F39600"/>
	</linearGradient>
	<polygon class="st5" points="206.5,316.5 132.4,381.3 154.6,278.3 	"/>
	
		<linearGradient id="SVGID_6_" gradientUnits="userSpaceOnUse" x1="766.3351" y1="205.2631" x2="820.0311" y2="205.2631" gradientTransform="matrix(-1 0 0 1 952.4483 0)">
		<stop  offset="0" style="stop-color:#EE7203"/>
		<stop  offset="0.2546" style="stop-color:#F28B15"/>
		<stop  offset="0.5403" style="stop-color:#F6A122"/>
		<stop  offset="0.7976" style="stop-color:#F8AD2A"/>
		<stop  offset="1" style="stop-color:#F9B22D"/>
	</linearGradient>
	<polygon class="st6" points="132.4,261.9 186.1,132.3 154.6,278.3 	"/>
	<polygon class="st7" points="132.4,261.9 154.6,278.3 132.4,381.3 110.2,278.3 	"/>
</g>
</svg>
